<?xml version="1.0" encoding="UTF-8"?>
<svg xmlns="http://www.w3.org/2000/svg" xmlns:xlink="http://www.w3.org/1999/xlink" width="16pt" height="15pt" viewBox="0 0 16 15" version="1.1">
<g id="surface1">
<path style=" stroke:none;fill-rule:nonzero;fill:rgb(0%,0%,0%);fill-opacity:1;" d="M 7.476562 4.953125 C 7.496094 4.960938 7.519531 4.964844 7.539062 4.964844 C 7.5625 4.964844 7.582031 4.960938 7.601562 4.953125 C 7.675781 4.917969 9.402344 4.082031 9.402344 3.121094 C 9.402344 2.605469 8.953125 2.183594 8.402344 2.183594 C 8.035156 2.183594 7.710938 2.371094 7.539062 2.648438 C 7.367188 2.371094 7.042969 2.183594 6.675781 2.183594 C 6.125 2.183594 5.675781 2.605469 5.675781 3.121094 C 5.675781 4.082031 7.402344 4.917969 7.476562 4.953125 Z M 6.675781 2.441406 C 7.078125 2.441406 7.402344 2.746094 7.402344 3.121094 C 7.402344 3.191406 7.464844 3.25 7.539062 3.25 C 7.613281 3.25 7.675781 3.191406 7.675781 3.121094 C 7.675781 2.746094 8 2.441406 8.402344 2.441406 C 8.804688 2.441406 9.128906 2.746094 9.128906 3.121094 C 9.128906 3.757812 8.035156 4.445312 7.539062 4.695312 C 7.042969 4.445312 5.949219 3.761719 5.949219 3.121094 C 5.949219 2.746094 6.273438 2.441406 6.675781 2.441406 Z M 6.675781 2.441406 "/>
<path style=" stroke:none;fill-rule:nonzero;fill:rgb(0%,0%,0%);fill-opacity:1;" d="M 4.710938 3.089844 C 4.71875 3.089844 4.726562 3.09375 4.738281 3.09375 C 4.789062 3.09375 4.835938 3.058594 4.851562 3.007812 C 4.988281 2.429688 5.332031 1.898438 5.820312 1.511719 C 5.867188 1.472656 5.875 1.40625 5.832031 1.359375 C 5.789062 1.3125 5.71875 1.308594 5.667969 1.347656 C 5.144531 1.761719 4.773438 2.335938 4.625 2.960938 C 4.609375 3.019531 4.648438 3.078125 4.710938 3.089844 Z M 4.710938 3.089844 "/>
<path style=" stroke:none;fill-rule:nonzero;fill:rgb(0%,0%,0%);fill-opacity:1;" d="M 5.007812 5.546875 C 5.027344 5.589844 5.070312 5.613281 5.117188 5.613281 C 5.128906 5.613281 5.144531 5.613281 5.160156 5.605469 C 5.21875 5.582031 5.246094 5.519531 5.222656 5.464844 C 4.9375 4.824219 4.777344 4.152344 4.777344 3.621094 C 4.777344 3.5625 4.726562 3.515625 4.660156 3.515625 C 4.597656 3.515625 4.542969 3.5625 4.542969 3.621094 C 4.542969 4.1875 4.710938 4.871094 5.007812 5.546875 Z M 5.007812 5.546875 "/>
<path style=" stroke:none;fill-rule:nonzero;fill:rgb(0%,0%,0%);fill-opacity:1;" d="M 14.164062 3.566406 C 14.175781 3.566406 14.183594 3.566406 14.191406 3.5625 C 14.253906 3.550781 14.292969 3.492188 14.277344 3.433594 C 14.128906 2.808594 13.757812 2.238281 13.234375 1.820312 C 13.183594 1.78125 13.113281 1.789062 13.070312 1.832031 C 13.027344 1.878906 13.035156 1.949219 13.082031 1.988281 C 13.570312 2.375 13.914062 2.90625 14.050781 3.480469 C 14.066406 3.53125 14.113281 3.566406 14.164062 3.566406 Z M 14.164062 3.566406 "/>
<path style=" stroke:none;fill-rule:nonzero;fill:rgb(0%,0%,0%);fill-opacity:1;" d="M 14.242188 3.988281 C 14.175781 3.988281 14.125 4.035156 14.125 4.097656 C 14.125 4.628906 13.964844 5.300781 13.679688 5.9375 C 13.65625 5.992188 13.683594 6.058594 13.742188 6.082031 C 13.757812 6.085938 13.773438 6.089844 13.785156 6.089844 C 13.832031 6.089844 13.875 6.0625 13.894531 6.023438 C 14.191406 5.347656 14.359375 4.664062 14.359375 4.097656 C 14.359375 4.035156 14.304688 3.988281 14.242188 3.988281 Z M 14.242188 3.988281 "/>
<path style=" stroke:none;fill-rule:nonzero;fill:rgb(0%,0%,0%);fill-opacity:1;" d="M 2.636719 2.738281 C 2.167969 3.109375 1.835938 3.625 1.703125 4.183594 C 1.6875 4.242188 1.726562 4.300781 1.789062 4.3125 C 1.796875 4.3125 1.808594 4.316406 1.816406 4.316406 C 1.867188 4.316406 1.917969 4.28125 1.929688 4.230469 C 2.054688 3.71875 2.359375 3.246094 2.789062 2.902344 C 2.835938 2.863281 2.84375 2.796875 2.800781 2.75 C 2.761719 2.703125 2.6875 2.699219 2.636719 2.738281 Z M 2.636719 2.738281 "/>
<path style=" stroke:none;fill-rule:nonzero;fill:rgb(0%,0%,0%);fill-opacity:1;" d="M 1.863281 4.777344 C 1.863281 4.714844 1.8125 4.667969 1.746094 4.667969 C 1.683594 4.667969 1.632812 4.714844 1.632812 4.777344 C 1.632812 5.28125 1.777344 5.894531 2.046875 6.496094 C 2.066406 6.539062 2.109375 6.5625 2.152344 6.5625 C 2.167969 6.5625 2.183594 6.5625 2.199219 6.554688 C 2.257812 6.53125 2.285156 6.46875 2.261719 6.414062 C 2.007812 5.84375 1.863281 5.246094 1.863281 4.777344 Z M 1.863281 4.777344 "/>
<path style=" stroke:none;fill-rule:nonzero;fill:rgb(0%,0%,0%);fill-opacity:1;" d="M 11.390625 0.527344 C 10.851562 0.527344 10.335938 0.632812 9.855469 0.835938 C 9.203125 0.316406 8.355469 0 7.433594 0 C 6.152344 0 5.019531 0.609375 4.34375 1.535156 C 4.304688 1.53125 4.261719 1.53125 4.222656 1.53125 C 2.375 1.53125 0.871094 2.941406 0.871094 4.671875 C 0.871094 5.53125 1.25 6.671875 1.832031 7.570312 C 2.367188 8.394531 2.996094 8.929688 3.648438 9.128906 L 3.210938 9.746094 C 3.1875 9.78125 3.1875 9.824219 3.207031 9.859375 C 3.226562 9.894531 3.265625 9.914062 3.308594 9.914062 L 4.144531 9.914062 C 4.140625 9.929688 4.136719 9.941406 4.136719 9.953125 C 4.136719 10.332031 4.222656 10.523438 4.308594 10.707031 C 4.386719 10.875 4.457031 11.035156 4.457031 11.359375 C 4.457031 11.683594 4.386719 11.84375 4.308594 12.011719 C 4.222656 12.195312 4.136719 12.386719 4.136719 12.765625 C 4.136719 13.140625 4.222656 13.332031 4.308594 13.515625 C 4.386719 13.6875 4.457031 13.84375 4.457031 14.167969 C 4.457031 14.496094 4.386719 14.652344 4.308594 14.820312 C 4.277344 14.886719 4.3125 14.960938 4.378906 14.988281 C 4.398438 14.996094 4.414062 15 4.433594 15 C 4.488281 15 4.539062 14.972656 4.558594 14.921875 C 4.644531 14.738281 4.730469 14.546875 4.730469 14.167969 C 4.730469 13.792969 4.644531 13.601562 4.558594 13.417969 C 4.484375 13.25 4.410156 13.089844 4.410156 12.765625 C 4.410156 12.441406 4.484375 12.28125 4.558594 12.113281 C 4.644531 11.929688 4.730469 11.738281 4.730469 11.359375 C 4.730469 10.980469 4.644531 10.792969 4.558594 10.605469 C 4.484375 10.4375 4.410156 10.28125 4.410156 9.953125 C 4.410156 9.941406 4.40625 9.929688 4.402344 9.914062 L 5.238281 9.914062 C 5.28125 9.914062 5.320312 9.894531 5.339844 9.859375 C 5.359375 9.824219 5.359375 9.78125 5.335938 9.746094 L 4.878906 9.101562 C 5.320312 8.945312 5.746094 8.636719 6.144531 8.1875 C 6.339844 8.308594 6.535156 8.402344 6.734375 8.46875 L 6.308594 9.15625 C 6.289062 9.191406 6.289062 9.230469 6.308594 9.265625 C 6.332031 9.300781 6.367188 9.320312 6.410156 9.320312 L 7.289062 9.320312 C 7.28125 9.652344 7.203125 9.828125 7.121094 10.007812 C 7.027344 10.214844 6.929688 10.425781 6.929688 10.84375 C 6.929688 11.265625 7.027344 11.476562 7.121094 11.683594 C 7.207031 11.875 7.289062 12.054688 7.289062 12.421875 C 7.289062 12.789062 7.207031 12.96875 7.121094 13.160156 C 7.027344 13.363281 6.929688 13.578125 6.929688 13.996094 C 6.929688 14.417969 7.027344 14.628906 7.121094 14.835938 C 7.128906 14.851562 7.136719 14.867188 7.144531 14.886719 C 7.164062 14.933594 7.214844 14.964844 7.269531 14.964844 C 7.285156 14.964844 7.304688 14.960938 7.320312 14.953125 C 7.390625 14.925781 7.425781 14.851562 7.394531 14.785156 C 7.386719 14.769531 7.378906 14.75 7.371094 14.734375 C 7.285156 14.542969 7.203125 14.363281 7.203125 13.996094 C 7.203125 13.628906 7.285156 13.449219 7.371094 13.257812 C 7.464844 13.054688 7.5625 12.839844 7.5625 12.421875 C 7.5625 12 7.464844 11.789062 7.371094 11.582031 C 7.285156 11.394531 7.203125 11.214844 7.203125 10.84375 C 7.203125 10.476562 7.285156 10.296875 7.371094 10.109375 C 7.460938 9.910156 7.554688 9.707031 7.5625 9.320312 L 8.339844 9.320312 C 8.378906 9.320312 8.417969 9.300781 8.4375 9.265625 C 8.460938 9.230469 8.460938 9.191406 8.4375 9.15625 L 8.035156 8.5 C 8.417969 8.390625 8.796875 8.175781 9.15625 7.863281 C 9.542969 8.324219 10.089844 8.820312 10.765625 9.023438 L 10.316406 9.753906 C 10.296875 9.789062 10.296875 9.828125 10.316406 9.863281 C 10.335938 9.898438 10.375 9.917969 10.417969 9.917969 L 11.246094 9.917969 C 11.25 10.3125 11.34375 10.515625 11.433594 10.714844 C 11.523438 10.90625 11.605469 11.085938 11.605469 11.453125 C 11.605469 11.820312 11.523438 12 11.433594 12.191406 C 11.339844 12.394531 11.246094 12.609375 11.246094 13.027344 C 11.246094 13.449219 11.339844 13.660156 11.433594 13.867188 C 11.523438 14.054688 11.605469 14.234375 11.605469 14.605469 C 11.605469 14.695312 11.597656 14.773438 11.589844 14.851562 C 11.578125 14.921875 11.632812 14.984375 11.707031 14.996094 C 11.714844 14.996094 11.71875 14.996094 11.722656 14.996094 C 11.792969 14.996094 11.851562 14.949219 11.859375 14.882812 C 11.871094 14.796875 11.875 14.703125 11.875 14.605469 C 11.875 14.183594 11.78125 13.972656 11.6875 13.765625 C 11.597656 13.574219 11.515625 13.394531 11.515625 13.027344 C 11.515625 12.660156 11.597656 12.480469 11.6875 12.289062 C 11.78125 12.085938 11.875 11.871094 11.875 11.453125 C 11.875 11.03125 11.78125 10.820312 11.6875 10.613281 C 11.601562 10.433594 11.523438 10.257812 11.519531 9.917969 L 12.34375 9.917969 C 12.386719 9.917969 12.425781 9.898438 12.445312 9.863281 C 12.464844 9.828125 12.464844 9.789062 12.445312 9.753906 L 11.996094 9.027344 C 12.734375 8.808594 13.449219 8.207031 14.054688 7.277344 C 14.707031 6.269531 15.128906 4.996094 15.128906 4.03125 C 15.128906 2.101562 13.449219 0.527344 11.390625 0.527344 Z M 7.433594 0.257812 C 9.347656 0.257812 10.902344 1.714844 10.902344 3.503906 C 10.902344 4.425781 10.496094 5.644531 9.867188 6.617188 C 9.6875 6.894531 9.421875 7.25 9.085938 7.566406 C 9.078125 7.574219 9.070312 7.582031 9.0625 7.589844 C 8.628906 7.996094 8.074219 8.332031 7.433594 8.332031 C 6.980469 8.332031 6.574219 8.164062 6.21875 7.921875 C 6.214844 7.917969 6.210938 7.914062 6.207031 7.910156 C 6.195312 7.90625 6.1875 7.898438 6.179688 7.894531 C 5.652344 7.527344 5.25 6.996094 5.003906 6.617188 C 4.375 5.644531 3.96875 4.425781 3.96875 3.503906 C 3.96875 1.714844 5.523438 0.257812 7.433594 0.257812 Z M 4.652344 9.171875 L 5.019531 9.699219 L 3.527344 9.699219 L 3.886719 9.1875 C 3.996094 9.207031 4.109375 9.21875 4.222656 9.21875 C 4.363281 9.21875 4.507812 9.203125 4.648438 9.167969 C 4.648438 9.171875 4.648438 9.171875 4.652344 9.171875 Z M 4.222656 8.960938 C 3.207031 8.960938 2.433594 8.007812 2.066406 7.4375 C 1.507812 6.574219 1.144531 5.488281 1.144531 4.671875 C 1.144531 3.09375 2.5 1.8125 4.175781 1.789062 C 3.871094 2.296875 3.695312 2.882812 3.695312 3.503906 C 3.695312 4.46875 4.117188 5.742188 4.769531 6.75 C 5.125 7.292969 5.515625 7.726562 5.925781 8.035156 C 5.53125 8.480469 4.9375 8.960938 4.222656 8.960938 Z M 8.136719 9.101562 L 6.613281 9.101562 L 6.960938 8.535156 C 7.117188 8.570312 7.277344 8.589844 7.433594 8.589844 C 7.558594 8.589844 7.679688 8.578125 7.800781 8.554688 Z M 12.144531 9.699219 L 10.617188 9.699219 L 11 9.078125 C 11.125 9.101562 11.253906 9.117188 11.390625 9.117188 C 11.511719 9.117188 11.636719 9.105469 11.761719 9.082031 Z M 13.820312 7.144531 C 13.402344 7.785156 12.535156 8.859375 11.390625 8.859375 C 10.519531 8.859375 9.8125 8.238281 9.351562 7.679688 C 9.613281 7.421875 9.863281 7.109375 10.097656 6.75 C 10.75 5.742188 11.171875 4.46875 11.171875 3.503906 C 11.171875 2.539062 10.753906 1.660156 10.074219 1.023438 C 10.492188 0.863281 10.933594 0.785156 11.390625 0.785156 C 13.300781 0.785156 14.855469 2.242188 14.855469 4.03125 C 14.855469 4.953125 14.449219 6.171875 13.820312 7.144531 Z M 13.820312 7.144531 "/>
</g>
</svg>
