<?xml version="1.0" encoding="UTF-8"?>
<svg xmlns="http://www.w3.org/2000/svg" xmlns:xlink="http://www.w3.org/1999/xlink" width="16pt" height="16pt" viewBox="0 0 16 16" version="1.1">
<g id="surface1">
<path style=" stroke:none;fill-rule:nonzero;fill:rgb(83.529412%,96.078431%,98.431373%);fill-opacity:1;" d="M 8.613281 2.132812 L 10.75 2.132812 L 10.75 3.367188 L 8.613281 3.367188 Z M 8.613281 2.132812 "/>
<path style=" stroke:none;fill-rule:nonzero;fill:rgb(100%,45.490196%,50.196078%);fill-opacity:1;" d="M 8.558594 2.132812 L 10.808594 2.132812 C 11.222656 2.132812 11.558594 1.796875 11.558594 1.382812 C 11.558594 0.96875 11.222656 0.632812 10.808594 0.632812 L 8.558594 0.632812 C 8.144531 0.632812 7.808594 0.96875 7.808594 1.382812 C 7.808594 1.796875 8.144531 2.132812 8.558594 2.132812 Z M 8.558594 2.132812 "/>
<path style=" stroke:none;fill-rule:nonzero;fill:rgb(36.470588%,87.058824%,96.078431%);fill-opacity:1;" d="M 15.6875 9.367188 C 15.6875 12.679688 13 15.367188 9.6875 15.367188 C 6.375 15.367188 3.6875 12.679688 3.6875 9.367188 C 3.6875 6.054688 6.375 3.367188 9.6875 3.367188 C 13 3.367188 15.6875 6.054688 15.6875 9.367188 Z M 15.6875 9.367188 "/>
<path style=" stroke:none;fill-rule:nonzero;fill:rgb(100%,100%,100%);fill-opacity:1;" d="M 14.222656 9.367188 C 14.222656 11.871094 12.191406 13.902344 9.6875 13.902344 C 7.183594 13.902344 5.152344 11.871094 5.152344 9.367188 C 5.152344 6.863281 7.183594 4.832031 9.6875 4.832031 C 12.191406 4.832031 14.222656 6.863281 14.222656 9.367188 Z M 14.222656 9.367188 "/>
<path style=" stroke:none;fill-rule:nonzero;fill:rgb(100%,51.372549%,55.686275%);fill-opacity:1;" d="M 10.347656 9.367188 C 10.347656 9.730469 10.050781 10.027344 9.6875 10.027344 C 9.324219 10.027344 9.027344 9.730469 9.027344 9.367188 C 9.027344 9.003906 9.324219 8.707031 9.6875 8.707031 C 10.050781 8.707031 10.347656 9.003906 10.347656 9.367188 Z M 10.347656 9.367188 "/>
<path style=" stroke:none;fill-rule:nonzero;fill:rgb(0%,0%,0%);fill-opacity:1;" d="M 15.96875 8.738281 C 15.824219 7.292969 15.179688 5.933594 14.152344 4.902344 C 13.273438 4.023438 12.195312 3.460938 11.0625 3.207031 L 11.0625 2.414062 C 11.527344 2.300781 11.871094 1.878906 11.871094 1.382812 C 11.871094 0.796875 11.394531 0.320312 10.808594 0.320312 L 8.558594 0.320312 C 7.972656 0.320312 7.496094 0.796875 7.496094 1.382812 C 7.496094 1.878906 7.839844 2.300781 8.300781 2.414062 L 8.300781 3.210938 C 7.171875 3.460938 6.101562 4.027344 5.222656 4.902344 C 5.03125 5.09375 4.855469 5.296875 4.695312 5.503906 C 4.683594 5.503906 4.675781 5.503906 4.667969 5.503906 L 2.441406 5.503906 C 2.269531 5.503906 2.128906 5.644531 2.128906 5.816406 C 2.128906 5.988281 2.269531 6.128906 2.441406 6.128906 L 4.269531 6.128906 C 4.039062 6.511719 3.855469 6.914062 3.714844 7.332031 L 0.3125 7.332031 C 0.140625 7.332031 0 7.46875 0 7.644531 C 0 7.816406 0.140625 7.957031 0.3125 7.957031 L 3.535156 7.957031 C 3.445312 8.351562 3.394531 8.753906 3.382812 9.15625 L 2 9.15625 C 1.828125 9.15625 1.6875 9.296875 1.6875 9.46875 C 1.6875 9.640625 1.828125 9.78125 2 9.78125 L 3.390625 9.78125 C 3.417969 10.1875 3.484375 10.589844 3.585938 10.984375 L 1.5625 10.984375 C 1.390625 10.984375 1.25 11.121094 1.25 11.296875 C 1.25 11.46875 1.390625 11.609375 1.5625 11.609375 L 3.785156 11.609375 C 4.09375 12.417969 4.570312 13.179688 5.222656 13.832031 C 6.253906 14.859375 7.617188 15.507812 9.0625 15.648438 C 9.269531 15.667969 9.476562 15.679688 9.683594 15.679688 C 10.902344 15.679688 12.105469 15.328125 13.128906 14.660156 C 13.273438 14.566406 13.3125 14.375 13.21875 14.230469 C 13.125 14.085938 12.929688 14.042969 12.785156 14.136719 C 10.550781 15.59375 7.554688 15.277344 5.664062 13.390625 C 3.449219 11.171875 3.449219 7.5625 5.664062 5.34375 C 7.882812 3.128906 11.492188 3.128906 13.710938 5.34375 C 15.597656 7.234375 15.914062 10.226562 14.460938 12.460938 C 14.367188 12.605469 14.410156 12.796875 14.554688 12.890625 C 14.699219 12.988281 14.890625 12.945312 14.984375 12.800781 C 15.761719 11.605469 16.109375 10.164062 15.96875 8.738281 Z M 8.121094 1.382812 C 8.121094 1.140625 8.316406 0.945312 8.558594 0.945312 L 10.808594 0.945312 C 11.050781 0.945312 11.246094 1.140625 11.246094 1.382812 C 11.246094 1.625 11.050781 1.820312 10.808594 1.820312 L 8.558594 1.820312 C 8.316406 1.820312 8.121094 1.625 8.121094 1.382812 Z M 8.925781 3.101562 L 8.925781 2.445312 L 10.4375 2.445312 L 10.4375 3.101562 C 9.9375 3.042969 9.429688 3.042969 8.925781 3.101562 Z M 8.925781 3.101562 "/>
<path style=" stroke:none;fill-rule:nonzero;fill:rgb(0%,0%,0%);fill-opacity:1;" d="M 13.929688 13.296875 C 13.847656 13.296875 13.769531 13.332031 13.710938 13.386719 C 13.652344 13.445312 13.617188 13.527344 13.617188 13.609375 C 13.617188 13.691406 13.652344 13.773438 13.710938 13.832031 C 13.769531 13.890625 13.847656 13.921875 13.929688 13.921875 C 14.011719 13.921875 14.09375 13.890625 14.152344 13.832031 C 14.210938 13.773438 14.242188 13.691406 14.242188 13.609375 C 14.242188 13.527344 14.210938 13.445312 14.152344 13.386719 C 14.09375 13.332031 14.011719 13.296875 13.929688 13.296875 Z M 13.929688 13.296875 "/>
<path style=" stroke:none;fill-rule:nonzero;fill:rgb(0%,0%,0%);fill-opacity:1;" d="M 9.6875 4.519531 C 7.015625 4.519531 4.839844 6.695312 4.839844 9.367188 C 4.839844 12.039062 7.015625 14.214844 9.6875 14.214844 C 12.359375 14.214844 14.535156 12.039062 14.535156 9.367188 C 14.535156 6.695312 12.359375 4.519531 9.6875 4.519531 Z M 9.6875 13.589844 C 7.359375 13.589844 5.464844 11.695312 5.464844 9.367188 C 5.464844 7.039062 7.359375 5.144531 9.6875 5.144531 C 12.015625 5.144531 13.910156 7.039062 13.910156 9.367188 C 13.910156 11.695312 12.015625 13.589844 9.6875 13.589844 Z M 9.6875 13.589844 "/>
<path style=" stroke:none;fill-rule:nonzero;fill:rgb(0%,0%,0%);fill-opacity:1;" d="M 11.664062 6.949219 L 10.117188 8.496094 C 9.988281 8.433594 9.839844 8.394531 9.6875 8.394531 C 9.535156 8.394531 9.386719 8.433594 9.257812 8.496094 L 8.566406 7.804688 C 8.445312 7.679688 8.246094 7.679688 8.125 7.804688 C 8.003906 7.925781 8.003906 8.125 8.125 8.246094 L 8.816406 8.9375 C 8.753906 9.066406 8.714844 9.214844 8.714844 9.367188 C 8.714844 9.902344 9.152344 10.339844 9.6875 10.339844 C 10.222656 10.339844 10.660156 9.902344 10.660156 9.367188 C 10.660156 9.214844 10.621094 9.066406 10.558594 8.9375 L 12.0625 7.4375 L 12.105469 7.390625 C 12.226562 7.269531 12.226562 7.070312 12.105469 6.949219 C 11.984375 6.828125 11.785156 6.828125 11.664062 6.949219 Z M 9.6875 9.714844 C 9.496094 9.714844 9.339844 9.558594 9.339844 9.367188 C 9.339844 9.175781 9.496094 9.019531 9.6875 9.019531 C 9.878906 9.019531 10.035156 9.175781 10.035156 9.367188 C 10.035156 9.558594 9.878906 9.714844 9.6875 9.714844 Z M 9.6875 9.714844 "/>
<path style=" stroke:none;fill-rule:nonzero;fill:rgb(0%,0%,0%);fill-opacity:1;" d="M 13.027344 9.058594 L 12.738281 9.058594 C 12.566406 9.058594 12.425781 9.199219 12.425781 9.371094 C 12.425781 9.542969 12.566406 9.683594 12.738281 9.683594 L 13.027344 9.683594 C 13.203125 9.683594 13.339844 9.542969 13.339844 9.371094 C 13.339844 9.199219 13.203125 9.058594 13.027344 9.058594 Z M 13.027344 9.058594 "/>
<path style=" stroke:none;fill-rule:nonzero;fill:rgb(0%,0%,0%);fill-opacity:1;" d="M 6.636719 9.050781 L 6.347656 9.050781 C 6.175781 9.050781 6.035156 9.191406 6.035156 9.363281 C 6.035156 9.535156 6.175781 9.675781 6.347656 9.675781 L 6.636719 9.675781 C 6.808594 9.675781 6.949219 9.535156 6.949219 9.363281 C 6.949219 9.191406 6.808594 9.050781 6.636719 9.050781 Z M 6.636719 9.050781 "/>
<path style=" stroke:none;fill-rule:nonzero;fill:rgb(0%,0%,0%);fill-opacity:1;" d="M 9.691406 6.628906 C 9.863281 6.628906 10.003906 6.488281 10.003906 6.316406 L 10.003906 6.027344 C 10.003906 5.851562 9.863281 5.714844 9.691406 5.714844 C 9.519531 5.714844 9.378906 5.851562 9.378906 6.027344 L 9.378906 6.316406 C 9.378906 6.488281 9.519531 6.628906 9.691406 6.628906 Z M 9.691406 6.628906 "/>
<path style=" stroke:none;fill-rule:nonzero;fill:rgb(0%,0%,0%);fill-opacity:1;" d="M 9.683594 12.105469 C 9.511719 12.105469 9.371094 12.246094 9.371094 12.417969 L 9.371094 12.707031 C 9.371094 12.878906 9.511719 13.019531 9.683594 13.019531 C 9.855469 13.019531 9.996094 12.878906 9.996094 12.707031 L 9.996094 12.417969 C 9.996094 12.246094 9.855469 12.105469 9.683594 12.105469 Z M 9.683594 12.105469 "/>
<path style=" stroke:none;fill-rule:nonzero;fill:rgb(0%,0%,0%);fill-opacity:1;" d="M 0.3125 10.984375 C 0.230469 10.984375 0.148438 11.015625 0.0898438 11.074219 C 0.0351562 11.132812 0 11.214844 0 11.296875 C 0 11.378906 0.0351562 11.457031 0.0898438 11.515625 C 0.148438 11.574219 0.230469 11.609375 0.3125 11.609375 C 0.394531 11.609375 0.476562 11.574219 0.535156 11.515625 C 0.589844 11.457031 0.625 11.378906 0.625 11.296875 C 0.625 11.214844 0.589844 11.132812 0.535156 11.074219 C 0.476562 11.015625 0.394531 10.984375 0.3125 10.984375 Z M 0.3125 10.984375 "/>
</g>
</svg>
