<?xml version="1.0" encoding="UTF-8"?>
<svg xmlns="http://www.w3.org/2000/svg" xmlns:xlink="http://www.w3.org/1999/xlink" width="20pt" height="20pt" viewBox="0 0 20 20" version="1.1">
<g id="surface1">
<path style=" stroke:none;fill-rule:nonzero;fill:rgb(0%,0%,0%);fill-opacity:1;" d="M 10.246094 0.00390625 C 6.1875 -0.132812 2.851562 3.117188 2.851562 7.144531 C 2.851562 11.714844 7.238281 15.03125 9.699219 19.800781 C 9.824219 20.042969 10.171875 20.046875 10.296875 19.804688 C 12.519531 15.511719 16.320312 12.632812 17.027344 8.496094 C 17.757812 4.21875 14.582031 0.152344 10.246094 0.00390625 Z M 9.996094 10.886719 C 7.929688 10.886719 6.253906 9.210938 6.253906 7.144531 C 6.253906 5.078125 7.929688 3.402344 9.996094 3.402344 C 12.0625 3.402344 13.738281 5.078125 13.738281 7.144531 C 13.738281 9.210938 12.0625 10.886719 9.996094 10.886719 Z M 9.996094 10.886719 "/>
</g>
</svg>
