<?xml version="1.0" encoding="UTF-8"?>
<svg xmlns="http://www.w3.org/2000/svg" xmlns:xlink="http://www.w3.org/1999/xlink" width="16pt" height="16pt" viewBox="0 0 16 16" version="1.1">
<g id="surface1">
<path style=" stroke:none;fill-rule:nonzero;fill:rgb(66.27451%,65.882353%,68.235294%);fill-opacity:1;" d="M 16 15.246094 L 15.296875 14.542969 C 15.480469 14.230469 15.585938 13.878906 15.59375 13.511719 C 15.605469 12.957031 15.398438 12.4375 15.011719 12.050781 L 13.339844 10.378906 C 12.960938 10.003906 12.460938 9.796875 11.921875 9.796875 C 11.910156 9.796875 11.894531 9.796875 11.878906 9.796875 C 11.511719 9.804688 11.15625 9.90625 10.847656 10.09375 L 10.601562 9.847656 C 10.785156 9.535156 10.890625 9.183594 10.898438 8.816406 C 10.910156 8.261719 10.703125 7.742188 10.316406 7.355469 L 8.644531 5.683594 C 8.257812 5.296875 7.738281 5.089844 7.183594 5.101562 C 6.816406 5.109375 6.460938 5.214844 6.152344 5.398438 L 5.90625 5.152344 C 6.089844 4.839844 6.195312 4.488281 6.203125 4.121094 C 6.214844 3.566406 6.007812 3.046875 5.621094 2.660156 L 3.949219 0.988281 C 3.28125 0.324219 2.253906 0.230469 1.457031 0.703125 L 0.753906 0 L 0 0.753906 L 0.703125 1.457031 C 0.230469 2.253906 0.324219 3.28125 0.988281 3.949219 L 2.660156 5.621094 C 3.035156 5.996094 3.539062 6.203125 4.074219 6.203125 C 4.089844 6.203125 4.105469 6.203125 4.121094 6.203125 C 4.488281 6.195312 4.839844 6.089844 5.152344 5.90625 L 5.398438 6.152344 C 5.210938 6.460938 5.109375 6.816406 5.101562 7.183594 C 5.089844 7.738281 5.296875 8.257812 5.683594 8.644531 L 7.355469 10.316406 C 7.730469 10.691406 8.234375 10.898438 8.769531 10.898438 C 8.785156 10.898438 8.800781 10.898438 8.816406 10.898438 C 9.183594 10.890625 9.535156 10.785156 9.847656 10.601562 L 10.09375 10.847656 C 9.90625 11.15625 9.804688 11.511719 9.796875 11.878906 C 9.785156 12.433594 9.992188 12.953125 10.378906 13.339844 L 12.050781 15.011719 C 12.4375 15.398438 12.949219 15.59375 13.46875 15.59375 C 13.839844 15.59375 14.210938 15.492188 14.542969 15.296875 L 15.246094 16 Z M 4.097656 5.140625 C 3.835938 5.144531 3.589844 5.046875 3.410156 4.867188 L 1.738281 3.195312 C 1.492188 2.949219 1.417969 2.589844 1.507812 2.257812 L 1.726562 2.480469 L 2.480469 1.726562 L 2.261719 1.507812 C 2.347656 1.484375 2.441406 1.46875 2.53125 1.46875 C 2.777344 1.46875 3.015625 1.558594 3.195312 1.742188 L 4.867188 3.414062 C 5.046875 3.59375 5.144531 3.835938 5.136719 4.097656 C 5.136719 4.183594 5.125 4.269531 5.101562 4.351562 L 4.46875 3.714844 L 3.714844 4.46875 L 4.351562 5.101562 C 4.269531 5.125 4.183594 5.136719 4.097656 5.140625 Z M 8.792969 9.835938 C 8.53125 9.839844 8.285156 9.742188 8.109375 9.5625 L 6.433594 7.890625 C 6.253906 7.710938 6.160156 7.46875 6.164062 7.207031 C 6.167969 7.121094 6.179688 7.035156 6.203125 6.953125 L 6.835938 7.589844 L 7.589844 6.835938 L 6.953125 6.203125 C 7.035156 6.179688 7.121094 6.167969 7.207031 6.164062 C 7.210938 6.164062 7.21875 6.164062 7.226562 6.164062 C 7.480469 6.164062 7.714844 6.261719 7.890625 6.4375 L 9.5625 8.109375 C 9.742188 8.289062 9.839844 8.53125 9.832031 8.792969 C 9.832031 8.878906 9.820312 8.964844 9.796875 9.046875 L 9.164062 8.410156 L 8.410156 9.164062 L 9.042969 9.796875 C 8.964844 9.820312 8.878906 9.832031 8.792969 9.835938 Z M 12.804688 14.257812 L 11.132812 12.585938 C 10.953125 12.40625 10.855469 12.164062 10.859375 11.902344 C 10.863281 11.816406 10.875 11.730469 10.898438 11.648438 L 11.53125 12.285156 L 12.285156 11.53125 L 11.648438 10.898438 C 11.730469 10.875 11.816406 10.863281 11.902344 10.859375 C 11.90625 10.859375 11.914062 10.859375 11.921875 10.859375 C 12.175781 10.859375 12.410156 10.957031 12.585938 11.132812 L 14.257812 12.804688 C 14.4375 12.984375 14.535156 13.226562 14.527344 13.488281 C 14.527344 13.574219 14.515625 13.660156 14.492188 13.738281 L 14.273438 13.519531 L 13.519531 14.273438 L 13.738281 14.492188 C 13.410156 14.582031 13.050781 14.507812 12.804688 14.257812 Z M 12.804688 14.257812 "/>
<path style=" stroke:none;fill-rule:nonzero;fill:rgb(50.196078%,50.196078%,50.588235%);fill-opacity:1;" d="M 15.59375 13.511719 C 15.605469 12.957031 15.398438 12.4375 15.011719 12.050781 L 13.339844 10.378906 C 12.960938 10.003906 12.460938 9.796875 11.921875 9.796875 C 11.910156 9.796875 11.894531 9.796875 11.878906 9.796875 C 11.511719 9.804688 11.15625 9.90625 10.847656 10.09375 L 10.601562 9.847656 C 10.785156 9.535156 10.890625 9.183594 10.898438 8.816406 C 10.910156 8.261719 10.703125 7.742188 10.316406 7.355469 L 9.480469 6.519531 L 8.726562 7.273438 L 9.5625 8.109375 C 9.742188 8.289062 9.839844 8.53125 9.832031 8.792969 C 9.832031 8.878906 9.820312 8.964844 9.796875 9.046875 L 9.164062 8.410156 L 8.410156 9.164062 L 9.042969 9.796875 C 8.964844 9.820312 8.878906 9.832031 8.792969 9.835938 C 8.53125 9.839844 8.285156 9.742188 8.105469 9.5625 L 7.273438 8.726562 L 6.519531 9.480469 L 7.355469 10.316406 C 7.730469 10.691406 8.234375 10.898438 8.769531 10.898438 C 8.785156 10.898438 8.800781 10.898438 8.816406 10.898438 C 9.183594 10.890625 9.535156 10.785156 9.847656 10.601562 L 10.09375 10.847656 C 9.90625 11.15625 9.804688 11.511719 9.796875 11.878906 C 9.785156 12.433594 9.992188 12.953125 10.378906 13.339844 L 12.050781 15.011719 C 12.4375 15.398438 12.949219 15.59375 13.46875 15.59375 C 13.839844 15.59375 14.210938 15.492188 14.542969 15.296875 L 15.246094 16 L 16 15.246094 L 15.296875 14.542969 C 15.480469 14.230469 15.585938 13.878906 15.59375 13.511719 Z M 14.492188 13.738281 L 14.273438 13.519531 L 13.519531 14.273438 L 13.738281 14.492188 C 13.410156 14.582031 13.050781 14.507812 12.800781 14.257812 L 11.128906 12.585938 C 10.953125 12.40625 10.855469 12.164062 10.859375 11.902344 C 10.863281 11.816406 10.875 11.730469 10.898438 11.648438 L 11.53125 12.285156 L 12.285156 11.53125 L 11.648438 10.898438 C 11.730469 10.875 11.816406 10.863281 11.902344 10.859375 C 11.90625 10.859375 11.914062 10.859375 11.921875 10.859375 C 12.175781 10.859375 12.410156 10.957031 12.585938 11.132812 L 14.257812 12.804688 C 14.4375 12.984375 14.535156 13.226562 14.527344 13.488281 C 14.527344 13.574219 14.515625 13.660156 14.492188 13.738281 Z M 14.492188 13.738281 "/>
</g>
</svg>
